<svg version="1.1" xmlns="http://www.w3.org/2000/svg" xmlns:xlink="http://www.w3.org/1999/xlink" x="0px" y="0px" viewBox="0 0 256.9 23.6" style="enable-background:new 0 0 256.9 23.6;" xml:space="preserve">
<path fill="#212121" d="M80.2,5h-1.8l-4.6,16.3h-0.1L69.1,5h-2.2l-4.8,16.3h-0.1L57.5,5h-1.9l5.3,18.3h2.2L67.9,7H68l4.7,16.3h2.2
	L80.2,5L80.2,5z M83.5,23.3h9.4v-1.6h-7.6v-7.1h6.9v-1.6h-6.9V6.5h7.3V5h-9.1L83.5,23.3L83.5,23.3z M99.2,6.5h1.9
	c2.5,0,4.7,0.2,4.7,3.2c0,2.5-2.5,3.4-4.6,3.4h-1.9V6.5z M97.4,23.3h1.8v-8.6h1.5c1.8,0,2.5,0.1,3.6,2.4l2.7,6.2h2l-3.2-7.1
	c-0.6-1.2-0.9-2-2.4-2.2V14c2.3-0.3,4.1-1.9,4.1-4.2c0-3.4-2.2-4.8-5.4-4.8h-4.8L97.4,23.3C97.4,23.3,97.4,23.3,97.4,23.3z
	 M115.3,23.3h1.8V6.5h5.5V5h-12.8v1.6h5.5V23.3L115.3,23.3z M140,5.4c-1.6-0.5-3.3-0.8-5.4-0.8c-6.3,0-10.2,3.5-10.2,9.8
	c0,6.2,4.2,9.2,10.2,9.2c2,0,4-0.4,6-0.9v-9.9h-7.5v2.9h3.9v4.8c-0.6,0.2-1.4,0.3-2.4,0.3c-4,0-6.3-2.8-6.3-6.5
	c0-3.8,2.4-6.6,6.7-6.6c1.5,0,3.4,0.3,4.8,1C139.8,8.5,140,5.4,140,5.4z M155.3,16.2h-5.4l2.7-7.6h0.1L155.3,16.2z M143.3,23.3h3.9
	l1.6-4.2h7.5l1.6,4.2h4.1L154.8,5h-4.2L143.3,23.3L143.3,23.3z M168.6,7.9h1.2c1.9,0,3.9,0.2,3.9,2.4c0,2.3-2.1,2.5-3.9,2.5h-1.2
	C168.6,12.8,168.6,7.9,168.6,7.9z M164.9,23.3h3.7v-7.6h1.2c1.6,0,2,0.5,2.6,1.9l2.2,5.7h4.1l-3-7.2c-0.4-0.8-1-1.8-2-1.9v-0.1
	c2.4-0.3,3.8-2.1,3.8-4.3c0-5.1-4.8-5-8.7-5h-4L164.9,23.3L164.9,23.3L164.9,23.3z M192.3,16.2h-5.4l2.7-7.6h0.1L192.3,16.2z
	 M180.3,23.3h3.9l1.6-4.2h7.5l1.6,4.2h4.1L191.8,5h-4.2L180.3,23.3z M202.3,23.3h3.6V9.6h0.1l7.1,13.7h4.5V5H214v13.7h-0.1L206.9,5
	h-4.6V23.3L202.3,23.3z M225.8,23.3h3.7V7.9h5.3V5h-14.4v2.9h5.3V23.3L225.8,23.3z M237.7,23.3h3.7V5h-3.7V23.3z M245.9,23.3h11
	v-2.9h-7.3v-5.2h6.6v-2.9h-6.6V7.9h7.2V5h-11L245.9,23.3L245.9,23.3z"></path>
<path fill="#0064AF" d="M33.1,23.1c-0.6,0.2-1.3,0.2-1.9,0c-0.7-0.2-1.2-0.7-1.5-1.4c-0.3-0.7-0.3-1.4-0.1-2c0.2-0.7,0.8-1.2,1.5-1.5
	c0,0,6.1-3.1,7.4-3.7l-1.1,0l-2.1-0.1c-3.9-0.1-5.2-0.4-9-0.3c-11.9,0.2-16.7,1.4-21.6,2.7c0,0-2.3,0.7-3.3,0
	c-0.7-0.5-1.2-1.1-1.3-1.8C-0.1,14,0,13.3,0.5,12.6c0.4-0.7,1-1,1.7-1.2c0,0,9.9-2.9,23.8-3.1c3.9-0.1,6.6,0.1,11.8,0.5l0.3,0
	l-6.4-3.8c-0.6-0.4-1.1-0.9-1.3-1.6c-0.2-0.7-0.1-1.4,0.2-2c0.3-0.6,0.9-1.1,1.6-1.3C32.7-0.1,33.4,0,34,0.2
	c0.4,0.2,16.1,10.9,16.1,10.9c0.5,0.5,0.7,0.8,0.7,1.6c0,0.6-0.5,1-0.9,1.3C49.9,14,33.1,23.1,33.1,23.1z"></path>
</svg>